<?xml version="1.0" encoding="UTF-8"?>
<svg version="1.1" xmlns="http://www.w3.org/2000/svg" width="500" height="500">
<path d="M0 0 C165 0 330 0 500 0 C500 165 500 330 500 500 C335 500 170 500 0 500 C0 335 0 170 0 0 Z " fill="#2B2B2B" transform="translate(0,0)"/>
<path d="M0 0 C24.75 0 49.5 0 75 0 C75 53.46 75 106.92 75 162 C50.25 162 25.5 162 0 162 C0 108.54 0 55.08 0 0 Z " fill="#E3E3DA" transform="translate(78,162)"/>
<path d="M0 0 C0.72574219 -0.01224609 1.45148438 -0.02449219 2.19921875 -0.03710938 C11.99574509 -0.0633033 21.52547133 2.64521218 29.0234375 9.1640625 C37.59876971 18.18569453 39.89513099 28.13199026 39.91113281 40.20947266 C39.91858017 41.55931747 39.91858017 41.55931747 39.92617798 42.93643188 C39.94075949 45.90814994 39.94759602 48.87981457 39.953125 51.8515625 C39.95888109 53.92556763 39.96463877 55.99957276 39.97039795 58.07357788 C39.98089747 62.42291511 39.98674656 66.77223392 39.99023438 71.12158203 C39.99570754 76.67278976 40.01971492 82.22375079 40.04820633 87.77488136 C40.06690819 92.0610727 40.07204239 96.34720561 40.07357025 100.6334343 C40.07658183 102.67859618 40.08455936 104.72375741 40.09775543 106.76887894 C40.19060488 122.26886065 39.58209417 136.47575501 29.2265625 149.03515625 C27.49763187 150.68396571 25.77854262 151.92495355 23.75 153.1875 C22.97785156 153.6721875 22.20570313 154.156875 21.41015625 154.65625 C14.59147504 158.17809395 8.09720933 158.67591487 0.5625 158.75 C-0.36377197 158.76466309 -1.29004395 158.77932617 -2.24438477 158.79443359 C-11.85706841 158.65204888 -20.37569025 154.97479317 -27.25 148.1875 C-34.56316997 138.32630248 -37.38880523 128.18529928 -37.42700195 116.08959961 C-37.43357315 115.18155579 -37.44014435 114.27351196 -37.44691467 113.33795166 C-37.46659191 110.33858141 -37.47829979 107.33926119 -37.48828125 104.33984375 C-37.49235678 103.3113135 -37.4964323 102.28278324 -37.50063133 101.2230854 C-37.52147142 95.77576017 -37.53578032 90.32845995 -37.54516602 84.88110352 C-37.55620741 79.278356 -37.59058727 73.67600813 -37.63033772 68.07340145 C-37.6565927 63.74513555 -37.66486588 59.41696347 -37.66844749 55.08862495 C-37.67329292 53.02473829 -37.68484793 50.96085524 -37.70348549 48.89704704 C-37.82568071 34.46538739 -37.6384673 21.35705506 -27.25 10.1875 C-19.46107216 2.57165945 -10.63170016 0.00924496 0 0 Z " fill="#E3E3DA" transform="translate(374.25,165.8125)"/>
<path d="M0 0 C60.16059957 0 60.16059957 0 67.20703125 5.82421875 C78.15383602 18.52890458 76.75929429 36.14209508 76 52 C75.066531 60.52111611 72.45878599 66.27516697 66 72 C65.01 72.66 64.02 73.32 63 74 C63.928125 74.5775 64.85625 75.155 65.8125 75.75 C70.74216111 79.22976078 72.36393184 82.24242475 74 88 C74.24050903 91.2651062 74.24050903 91.2651062 74.22705078 94.83154297 C74.22734283 95.48590836 74.22763489 96.14027374 74.22793579 96.81446838 C74.22655288 98.95718076 74.21104147 101.09953657 74.1953125 103.2421875 C74.19157866 104.7357667 74.18873344 106.22934837 74.18673706 107.72293091 C74.17912978 111.63890438 74.15950653 115.55472764 74.1373291 119.47064209 C74.11319478 124.17719417 74.10407584 128.88379671 74.09242249 133.59039307 C74.07308019 140.72703294 74.03473765 147.8633437 74 155 C63.77 155 53.54 155 43 155 C42.98582031 150.19824219 42.97164063 145.39648438 42.95703125 140.44921875 C42.93697696 137.40943131 42.91546272 134.36979539 42.88867188 131.33007812 C42.84627571 126.50392723 42.80932685 121.67816026 42.80444336 116.85180664 C42.8001686 112.96110432 42.77177635 109.07126072 42.72656822 105.18082619 C42.71356651 103.69570732 42.70929503 102.21048581 42.71384621 100.725317 C42.71873406 98.6462542 42.6927502 96.569719 42.65942383 94.4909668 C42.65276199 93.30738083 42.64610016 92.12379486 42.63923645 90.90434265 C42.27558958 87.85823249 42.27558958 87.85823249 39.83378601 86.15681458 C36.56459503 84.70070861 36.56459503 84.70070861 31 84 C31 107.43 31 130.86 31 155 C20.77 155 10.54 155 0 155 C0 103.85 0 52.7 0 0 Z " fill="#E4E4DB" transform="translate(252,168)"/>
<path d="M0 0 C56.80217161 0 56.80217161 0 65.2109375 7.90625 C75.11774119 19.5002386 75.188539 34.44703042 75.25 48.875 C75.270625 50.07769531 75.29125 51.28039062 75.3125 52.51953125 C75.3629922 64.14536036 73.34901668 76.80039736 65.3671875 85.8515625 C54.77608606 95.49278937 45.10546358 93 30 93 C30 113.46 30 133.92 30 155 C20.1 155 10.2 155 0 155 C0 103.85 0 52.7 0 0 Z " fill="#E5E5DC" transform="translate(167,168)"/>
<path d="M0 0 C3.61743471 0.52617232 4.31097666 0.72604555 6.4375 3.5 C6.73386946 6.4716956 6.84713327 9.23378861 6.82568359 12.20654297 C6.83094055 13.09627808 6.83619751 13.98601318 6.84161377 14.90270996 C6.85483721 17.84938012 6.84606587 20.79551166 6.8359375 23.7421875 C6.83795792 25.78858545 6.84086909 27.83498269 6.84463501 29.88137817 C6.84906184 34.17375533 6.84261704 38.46594536 6.82861328 42.75830078 C6.81154286 48.25863528 6.82134683 53.75852993 6.83933067 59.25884819 C6.85017719 63.486494 6.84671778 67.71403576 6.8389473 71.94168472 C6.83694658 73.96946388 6.83940006 75.99725249 6.84638596 78.0250206 C6.85401219 80.86182365 6.84237864 83.69791766 6.82568359 86.53466797 C6.83479263 87.79103561 6.83479263 87.79103561 6.84408569 89.07278442 C6.78892076 94.13731933 6.19496262 97.74253738 2.4375 101.5 C-0.9375 101.5 -0.9375 101.5 -4.5625 100.5 C-7.55550332 95.19958404 -8.00074715 90.70617103 -7.96655273 84.70654297 C-7.97684761 83.42958557 -7.97684761 83.42958557 -7.98735046 82.12683105 C-8.00555231 79.33177705 -8.00179183 76.53728765 -7.99609375 73.7421875 C-8.00065743 71.79118671 -8.00596356 69.84018753 -8.01197815 67.88919067 C-8.02089525 63.80903573 -8.01850053 59.7290767 -8.00854492 55.64892578 C-7.9970335 50.42212904 -8.01730716 45.19600571 -8.04646206 39.96929741 C-8.06480737 35.94409907 -8.06453533 31.91906281 -8.05882454 27.89383316 C-8.05867125 25.96652402 -8.06472217 24.03920396 -8.07711601 22.11193466 C-8.09199963 19.41908146 -8.08137014 16.727482 -8.06420898 14.03466797 C-8.07387695 13.24077667 -8.08354492 12.44688538 -8.09350586 11.62893677 C-8.04419178 7.93217342 -7.67725983 5.6904838 -5.75379944 2.49783325 C-3.5625 0.5 -3.5625 0.5 0 0 Z " fill="#2C2C2B" transform="translate(375.5625,194.5)"/>
<path d="M0 0 C1.6829392 0.97236487 3.35443434 1.96564444 5 3 C7.21734114 2.3498008 7.21734114 2.3498008 9 1 C11.91000797 -0.45500399 14.5089333 -0.20897384 17.75 -0.25 C18.96171875 -0.27578125 20.1734375 -0.3015625 21.421875 -0.328125 C26.99697701 0.1831289 30.08000986 2.08000986 34 6 C34 12.27 34 18.54 34 25 C17.5 25 1 25 -16 25 C-16 6 -16 6 -12 1 C-7.9657813 -0.34473957 -4.22220098 -0.46168688 0 0 Z " fill="#313131" transform="translate(105,277)"/>
<path d="M0 0 C9.94933257 -0.75673402 17.61452821 1.94116291 26.6875 5.5 C28.08204906 6.03161203 29.47722878 6.56157275 30.87304688 7.08984375 C34.25617268 8.37429517 37.63024596 9.68080429 41 11 C41 7.37 41 3.74 41 0 C43.97 0 46.94 0 50 0 C50 7.26 50 14.52 50 22 C38.75 22 38.75 22 32.4609375 19.59375 C31.80920563 19.34959351 31.15747375 19.10543701 30.48599243 18.85388184 C28.44281275 18.08448954 26.40916884 17.29286628 24.375 16.5 C22.97583256 15.96854335 21.57609581 15.438583 20.17578125 14.91015625 C16.77711892 13.62395097 13.38660171 12.31768435 10 11 C9.67 13.97 9.34 16.94 9 20 C6.03 20 3.06 20 0 20 C0 13.4 0 6.8 0 0 Z " fill="#2E2E2E" transform="translate(89,185)"/>
<path d="M0 0 C16.5 0 33 0 50 0 C50 3.3 50 6.6 50 10 C33.5 10 17 10 0 10 C0 6.7 0 3.4 0 0 Z " fill="#343433" transform="translate(89,237)"/>
<path d="M0 0 C8 0 8 0 10.9375 1.8125 C15.25179648 6.38826899 14.25762899 12.38277322 14.3125 18.3125 C14.34150391 19.34568359 14.37050781 20.37886719 14.40039062 21.44335938 C14.45155856 27.57957508 14.26205385 31.41541235 10 36 C7 37 7 37 0 37 C0 24.79 0 12.58 0 0 Z " fill="#303030" transform="translate(197,196)"/>
<path d="M0 0 C3.63 0 7.26 0 11 0 C13.82987779 4.24481668 13.36789905 7.8830297 13.375 12.875 C13.39949219 13.77347656 13.42398437 14.67195312 13.44921875 15.59765625 C13.46716336 19.64715633 13.2671288 22.427173 11.5390625 26.1328125 C9 28 9 28 0 28 C0 18.76 0 9.52 0 0 Z " fill="#2C2C2C" transform="translate(284,197)"/>
<path d="M0 0 C1.65322266 0.01740234 1.65322266 0.01740234 3.33984375 0.03515625 C4.99693359 0.04869141 4.99693359 0.04869141 6.6875 0.0625 C7.54214844 0.07410156 8.39679688 0.08570313 9.27734375 0.09765625 C9.60734375 1.74765625 9.93734375 3.39765625 10.27734375 5.09765625 C5.32734375 5.09765625 0.37734375 5.09765625 -4.72265625 5.09765625 C-3.47944235 0.12480066 -3.47944235 0.12480066 0 0 Z " fill="#D3D3CB" transform="translate(119.72265625,286.90234375)"/>
<path d="M0 0 C1.051875 -0.02126953 1.051875 -0.02126953 2.125 -0.04296875 C4 0.1875 4 0.1875 6 2.1875 C6 3.1775 6 4.1675 6 5.1875 C2.04 5.1875 -1.92 5.1875 -6 5.1875 C-6 3.8675 -6 2.5475 -6 1.1875 C-3.77109005 0.07304502 -2.46944894 0.02269714 0 0 Z " fill="#C2C2BA" transform="translate(102,286.8125)"/>
</svg>
