<?xml version="1.0" encoding="UTF-8"?>
<svg version="1.1" xmlns="http://www.w3.org/2000/svg" width="500" height="500">
<path d="M0 0 C165 0 330 0 500 0 C500 165 500 330 500 500 C335 500 170 500 0 500 C0 335 0 170 0 0 Z " fill="#2B2B2B" transform="translate(0,0)"/>
<path d="M0 0 C24.75 0 49.5 0 75 0 C75 53.46 75 106.92 75 162 C50.25 162 25.5 162 0 162 C0 108.54 0 55.08 0 0 Z " fill="#E0E0D7" transform="translate(78,162)"/>
<path d="M0 0 C0.72574219 -0.01224609 1.45148438 -0.02449219 2.19921875 -0.03710938 C11.99574509 -0.0633033 21.52547133 2.64521218 29.0234375 9.1640625 C37.59876971 18.18569453 39.89513099 28.13199026 39.91113281 40.20947266 C39.91858017 41.55931747 39.91858017 41.55931747 39.92617798 42.93643188 C39.94075949 45.90814994 39.94759602 48.87981457 39.953125 51.8515625 C39.95888109 53.92556763 39.96463877 55.99957276 39.97039795 58.07357788 C39.98089747 62.42291511 39.98674656 66.77223392 39.99023438 71.12158203 C39.99570754 76.67278976 40.01971492 82.22375079 40.04820633 87.77488136 C40.06690819 92.0610727 40.07204239 96.34720561 40.07357025 100.6334343 C40.07658183 102.67859618 40.08455936 104.72375741 40.09775543 106.76887894 C40.19060488 122.26886065 39.58209417 136.47575501 29.2265625 149.03515625 C27.49763187 150.68396571 25.77854262 151.92495355 23.75 153.1875 C22.97785156 153.6721875 22.20570313 154.156875 21.41015625 154.65625 C14.59147504 158.17809395 8.09720933 158.67591487 0.5625 158.75 C-0.36377197 158.76466309 -1.29004395 158.77932617 -2.24438477 158.79443359 C-11.85706841 158.65204888 -20.37569025 154.97479317 -27.25 148.1875 C-34.56316997 138.32630248 -37.38880523 128.18529928 -37.42700195 116.08959961 C-37.43357315 115.18155579 -37.44014435 114.27351196 -37.44691467 113.33795166 C-37.46659191 110.33858141 -37.47829979 107.33926119 -37.48828125 104.33984375 C-37.49235678 103.3113135 -37.4964323 102.28278324 -37.50063133 101.2230854 C-37.52147142 95.77576017 -37.53578032 90.32845995 -37.54516602 84.88110352 C-37.55620741 79.278356 -37.59058727 73.67600813 -37.63033772 68.07340145 C-37.6565927 63.74513555 -37.66486588 59.41696347 -37.66844749 55.08862495 C-37.67329292 53.02473829 -37.68484793 50.96085524 -37.70348549 48.89704704 C-37.82568071 34.46538739 -37.6384673 21.35705506 -27.25 10.1875 C-19.46107216 2.57165945 -10.63170016 0.00924496 0 0 Z " fill="#E3E3DA" transform="translate(374.25,165.8125)"/>
<path d="M0 0 C60.16059957 0 60.16059957 0 67.20703125 5.82421875 C78.15383602 18.52890458 76.75929429 36.14209508 76 52 C75.066531 60.52111611 72.45878599 66.27516697 66 72 C65.01 72.66 64.02 73.32 63 74 C63.928125 74.5775 64.85625 75.155 65.8125 75.75 C70.74216111 79.22976078 72.36393184 82.24242475 74 88 C74.24050903 91.2651062 74.24050903 91.2651062 74.22705078 94.83154297 C74.22734283 95.48590836 74.22763489 96.14027374 74.22793579 96.81446838 C74.22655288 98.95718076 74.21104147 101.09953657 74.1953125 103.2421875 C74.19157866 104.7357667 74.18873344 106.22934837 74.18673706 107.72293091 C74.17912978 111.63890438 74.15950653 115.55472764 74.1373291 119.47064209 C74.11319478 124.17719417 74.10407584 128.88379671 74.09242249 133.59039307 C74.07308019 140.72703294 74.03473765 147.8633437 74 155 C63.77 155 53.54 155 43 155 C42.98582031 150.19824219 42.97164063 145.39648438 42.95703125 140.44921875 C42.93697696 137.40943131 42.91546272 134.36979539 42.88867188 131.33007812 C42.84627571 126.50392723 42.80932685 121.67816026 42.80444336 116.85180664 C42.8001686 112.96110432 42.77177635 109.07126072 42.72656822 105.18082619 C42.71356651 103.69570732 42.70929503 102.21048581 42.71384621 100.725317 C42.71873406 98.6462542 42.6927502 96.569719 42.65942383 94.4909668 C42.65276199 93.30738083 42.64610016 92.12379486 42.63923645 90.90434265 C42.27558958 87.85823249 42.27558958 87.85823249 39.83378601 86.15681458 C36.56459503 84.70070861 36.56459503 84.70070861 31 84 C31 107.43 31 130.86 31 155 C20.77 155 10.54 155 0 155 C0 103.85 0 52.7 0 0 Z " fill="#E4E4DB" transform="translate(252,168)"/>
<path d="M0 0 C56.80217161 0 56.80217161 0 65.2109375 7.90625 C75.11774119 19.5002386 75.188539 34.44703042 75.25 48.875 C75.270625 50.07769531 75.29125 51.28039062 75.3125 52.51953125 C75.3629922 64.14536036 73.34901668 76.80039736 65.3671875 85.8515625 C54.77608606 95.49278937 45.10546358 93 30 93 C30 113.46 30 133.92 30 155 C20.1 155 10.2 155 0 155 C0 103.85 0 52.7 0 0 Z " fill="#E5E5DC" transform="translate(167,168)"/>
<path d="M0 0 C3.61743471 0.52617232 4.31097666 0.72604555 6.4375 3.5 C6.73386946 6.4716956 6.84713327 9.23378861 6.82568359 12.20654297 C6.83094055 13.09627808 6.83619751 13.98601318 6.84161377 14.90270996 C6.85483721 17.84938012 6.84606587 20.79551166 6.8359375 23.7421875 C6.83795792 25.78858545 6.84086909 27.83498269 6.84463501 29.88137817 C6.84906184 34.17375533 6.84261704 38.46594536 6.82861328 42.75830078 C6.81154286 48.25863528 6.82134683 53.75852993 6.83933067 59.25884819 C6.85017719 63.486494 6.84671778 67.71403576 6.8389473 71.94168472 C6.83694658 73.96946388 6.83940006 75.99725249 6.84638596 78.0250206 C6.85401219 80.86182365 6.84237864 83.69791766 6.82568359 86.53466797 C6.83479263 87.79103561 6.83479263 87.79103561 6.84408569 89.07278442 C6.78892076 94.13731933 6.19496262 97.74253738 2.4375 101.5 C-0.9375 101.5 -0.9375 101.5 -4.5625 100.5 C-7.55550332 95.19958404 -8.00074715 90.70617103 -7.96655273 84.70654297 C-7.97684761 83.42958557 -7.97684761 83.42958557 -7.98735046 82.12683105 C-8.00555231 79.33177705 -8.00179183 76.53728765 -7.99609375 73.7421875 C-8.00065743 71.79118671 -8.00596356 69.84018753 -8.01197815 67.88919067 C-8.02089525 63.80903573 -8.01850053 59.7290767 -8.00854492 55.64892578 C-7.9970335 50.42212904 -8.01730716 45.19600571 -8.04646206 39.96929741 C-8.06480737 35.94409907 -8.06453533 31.91906281 -8.05882454 27.89383316 C-8.05867125 25.96652402 -8.06472217 24.03920396 -8.07711601 22.11193466 C-8.09199963 19.41908146 -8.08137014 16.727482 -8.06420898 14.03466797 C-8.07387695 13.24077667 -8.08354492 12.44688538 -8.09350586 11.62893677 C-8.04419178 7.93217342 -7.67725983 5.6904838 -5.75379944 2.49783325 C-3.5625 0.5 -3.5625 0.5 0 0 Z " fill="#2C2C2B" transform="translate(375.5625,194.5)"/>
<path d="M0 0 C1.19625 0.00128906 2.3925 0.00257813 3.625 0.00390625 C7.17478181 0.45995461 9.11473074 1.37737403 12 3.4375 C12.82902832 2.70406372 12.82902832 2.70406372 13.67480469 1.95581055 C16.45363498 0.14128455 17.91589919 0.08719592 21.203125 0.14453125 C22.67265625 0.1590332 22.67265625 0.1590332 24.171875 0.17382812 C25.69554688 0.2115332 25.69554688 0.2115332 27.25 0.25 C28.796875 0.27030273 28.796875 0.27030273 30.375 0.29101562 C32.91689049 0.32631966 35.4585119 0.38012527 38 0.4375 C38 3.7375 38 7.0375 38 10.4375 C30.74 10.7675 23.48 11.0975 16 11.4375 C15.67 12.4275 15.34 13.4175 15 14.4375 C22.59 14.4375 30.18 14.4375 38 14.4375 C38 17.7375 38 21.0375 38 24.4375 C21.5 24.4375 5 24.4375 -12 24.4375 C-12 17.8375 -12 11.2375 -12 4.4375 C-6.82296614 0.29587291 -6.14187347 -0.09927597 0 0 Z " fill="#2E2E2E" transform="translate(101,182.5625)"/>
<path d="M0 0 C0 2.97 0 5.94 0 9 C-2.64 9.33 -5.28 9.66 -8 10 C-8 11.98 -8 13.96 -8 16 C-5.36 16 -2.72 16 0 16 C0 19.3 0 22.6 0 26 C-16.77587384 25.50357108 -33.3321626 23.93444244 -50 22 C-50 16.06 -50 10.12 -50 4 C-45.80492389 3.59028434 -41.60980185 3.18110466 -37.41455078 2.77319336 C-35.99297226 2.63481954 -34.57142182 2.4961568 -33.14990234 2.35717773 C-7.3292754 -0.16657444 -7.3292754 -0.16657444 0 0 Z " fill="#2F2F2E" transform="translate(139,251)"/>
<path d="M0 0 C0 3.3 0 6.6 0 10 C-2.37407592 10.64939736 -4.7491639 11.29460053 -7.125 11.9375 C-8.12273437 12.21110352 -8.12273437 12.21110352 -9.140625 12.49023438 C-13.10701367 13.55960387 -16.9277301 14.32128835 -21 15 C-14.07 15.33 -7.14 15.66 0 16 C0 18.97 0 21.94 0 25 C-16.5 25 -33 25 -50 25 C-50 22.03 -50 19.06 -50 16 C-42.08 15.505 -42.08 15.505 -34 15 C-39.28 13.68 -44.56 12.36 -50 11 C-50 7.7 -50 4.4 -50 1 C-48.63746094 1.28875 -47.27492188 1.5775 -45.87109375 1.875 C-44.05997087 2.25036225 -42.2487687 2.62534204 -40.4375 3 C-39.54224609 3.19078125 -38.64699219 3.3815625 -37.72460938 3.578125 C-28.82391196 5.40390909 -21.99798728 4.99699324 -13.3125 2.5 C-11.64320657 2.02671374 -9.97266735 1.55779452 -8.30078125 1.09375 C-7.57028564 0.88427734 -6.83979004 0.67480469 -6.0871582 0.45898438 C-4 0 -4 0 0 0 Z " fill="#2D2D2D" transform="translate(139,278)"/>
<path d="M0 0 C0 3.3 0 6.6 0 10 C-1.32 10.33 -2.64 10.66 -4 11 C-4.33 12.32 -4.66 13.64 -5 15 C-0.27114144 13.45588292 2.32393563 11.92995254 5.5 8.0625 C9.48059807 3.29105463 12.57116038 0.40203376 18.8984375 -0.33984375 C24.58582633 -0.51538044 29.21089573 -0.40278461 34 3 C37.11506953 7.67260429 36.59135029 12.53000984 36 18 C34.15046662 21.55679496 32.87028738 22.57497593 29.3125 24.3125 C25.0970372 25.18740737 21.30272846 25.13038571 17 25 C17 21.37 17 17.74 17 14 C20.3 14 23.6 14 27 14 C26.505 12.515 26.505 12.515 26 11 C23.14885536 10.44216735 21.76821637 10.26637375 19 11 C14.72422745 14.13901127 10.99837245 17.85126457 7.390625 21.73046875 C3.95664511 24.8654223 -0.8908882 24.38441465 -5.26171875 24.35546875 C-9.56273195 23.79713465 -11.16000368 22.21368004 -14 19 C-15.51149553 14.46551342 -15.77441645 10.62258684 -13.6875 6.25 C-9.62393711 0.83191615 -6.84421371 -0.15209364 0 0 Z " fill="#313131" transform="translate(103,224)"/>
<path d="M0 0 C16.5 0 33 0 50 0 C50 3.3 50 6.6 50 10 C33.5 10 17 10 0 10 C0 6.7 0 3.4 0 0 Z " fill="#303030" transform="translate(89,211)"/>
<path d="M0 0 C8 0 8 0 10.9375 1.8125 C15.25179648 6.38826899 14.25762899 12.38277322 14.3125 18.3125 C14.34150391 19.34568359 14.37050781 20.37886719 14.40039062 21.44335938 C14.45155856 27.57957508 14.26205385 31.41541235 10 36 C7 37 7 37 0 37 C0 24.79 0 12.58 0 0 Z " fill="#303030" transform="translate(197,196)"/>
<path d="M0 0 C3.63 0 7.26 0 11 0 C13.82987779 4.24481668 13.36789905 7.8830297 13.375 12.875 C13.39949219 13.77347656 13.42398437 14.67195312 13.44921875 15.59765625 C13.46716336 19.64715633 13.2671288 22.427173 11.5390625 26.1328125 C9 28 9 28 0 28 C0 18.76 0 9.52 0 0 Z " fill="#2C2C2C" transform="translate(284,197)"/>
<path d="M0 0 C0 1.32 0 2.64 0 4 C-8.71700174 4.14368684 -17.31320899 3.71961582 -26 3 C-25.67 2.34 -25.34 1.68 -25 1 C-21.97265625 0.5859375 -21.97265625 0.5859375 -18.0625 0.375 C-17.38823975 0.33705322 -16.71397949 0.29910645 -16.01928711 0.26000977 C-10.67743892 -0.02047065 -5.3473438 -0.11323787 0 0 Z " fill="#C7C7BF" transform="translate(123,262)"/>
<path d="M0 0 C2.97 0 5.94 0 9 0 C9 1.32 9 2.64 9 4 C6.03 4 3.06 4 0 4 C0 2.68 0 1.36 0 0 Z " fill="#E1E1D9" transform="translate(98,193)"/>
</svg>
